<svg width="38" height="37" viewBox="0 0 38 37" fill="none" xmlns="http://www.w3.org/2000/svg">
<path d="M19.0879 0C8.87049 0 0.587891 8.2826 0.587891 18.5C0.587891 28.7174 8.87049 37 19.0879 37C29.3053 37 37.5879 28.7174 37.5879 18.5C37.5879 8.2826 29.3053 0 19.0879 0ZM26.6131 15.1546C26.6209 15.3126 26.6228 15.4706 26.6228 15.6248C26.6228 20.4425 22.9594 25.9944 16.257 25.9944C14.2765 25.9977 12.3373 25.4289 10.6723 24.3564C10.9556 24.3911 11.2466 24.4046 11.5414 24.4046C13.2488 24.4046 14.8194 23.8245 16.0662 22.8456C15.3064 22.8307 14.5702 22.5791 13.9601 22.1258C13.3501 21.6726 12.8967 21.0404 12.663 20.3172C13.2087 20.421 13.7708 20.3993 14.3068 20.2536C13.4821 20.0869 12.7405 19.64 12.2076 18.9888C11.6748 18.3376 11.3836 17.5222 11.3834 16.6808V16.6365C11.8748 16.9082 12.4375 17.074 13.0349 17.0932C12.2618 16.5786 11.7145 15.788 11.5049 14.8831C11.2954 13.9783 11.4394 13.0276 11.9076 12.2254C12.8229 13.3508 13.9643 14.2715 15.2579 14.9278C16.5516 15.5841 17.9687 15.9614 19.4174 16.0353C19.2332 15.2535 19.3125 14.4327 19.6429 13.7006C19.9733 12.9685 20.5363 12.3661 21.2444 11.987C21.9525 11.6079 22.7661 11.4733 23.5585 11.6043C24.351 11.7352 25.078 12.1243 25.6265 12.711C26.442 12.5497 27.224 12.2506 27.939 11.8265C27.6672 12.6708 27.0981 13.3878 26.3376 13.8442C27.0599 13.7572 27.7653 13.563 28.4304 13.268C27.9418 14.0001 27.3264 14.639 26.6131 15.1546Z" fill="white"/>
<circle cx="19" cy="19" r="15" fill="white"/>
<g clip-path="url(#clip0_508_283)">
<path fill-rule="evenodd" clip-rule="evenodd" d="M24.7767 10.43C25.0238 10.326 25.2943 10.2901 25.5599 10.3261C25.8256 10.3621 26.0768 10.4686 26.2873 10.6347C26.4979 10.8007 26.6601 11.0201 26.757 11.27C26.854 11.52 26.8822 11.7914 26.8387 12.056L24.5707 25.813C24.3507 27.14 22.8947 27.901 21.6777 27.24C20.6597 26.687 19.1477 25.835 17.7877 24.946C17.1077 24.501 15.0247 23.076 15.2807 22.062C15.5007 21.195 19.0007 17.937 21.0007 16C21.7857 15.239 21.4277 14.8 20.5007 15.5C18.1977 17.238 14.5027 19.881 13.2807 20.625C12.2027 21.281 11.6407 21.393 10.9687 21.281C9.74265 21.077 8.60565 20.761 7.67765 20.376C6.42365 19.856 6.48465 18.132 7.67665 17.63L24.7767 10.43Z" fill="#4A4A4A"/>
</g>
<defs>
<clipPath id="clip0_508_283">
<rect width="24" height="24" fill="white" transform="translate(5 6)"/>
</clipPath>
</defs>
</svg>
