<svg width="193" height="22" viewBox="0 0 193 22" fill="none" xmlns="http://www.w3.org/2000/svg">
<path d="M93.4616 8.74105H86.5944V10.7608H91.4418C91.1995 13.5885 88.7757 14.8812 86.5944 14.8812C83.6859 14.8812 81.1813 12.6191 81.1813 9.46819C81.1813 6.39812 83.6051 3.97437 86.5944 3.97437C88.9373 3.97437 90.3108 5.42863 90.3108 5.42863L91.765 3.97437C91.765 3.97437 89.9068 1.95459 86.5944 1.95459C82.3124 1.95459 79 5.59021 79 9.46819C79 13.2654 82.0701 16.9818 86.6752 16.9818C90.7147 16.9818 93.6232 14.2349 93.6232 10.1953C93.6232 9.22581 93.4616 8.74105 93.4616 8.74105Z" fill="white"/>
<path d="M99.117 7.28711C96.2893 7.28711 94.2695 9.46847 94.2695 12.0538C94.2695 14.6391 96.2085 16.9013 99.117 16.9013C101.783 16.9013 103.964 14.8815 103.964 12.0538C103.964 8.90293 101.46 7.28711 99.117 7.28711ZM99.117 9.1453C100.49 9.1453 101.864 10.2764 101.864 12.0538C101.864 13.8312 100.571 14.9623 99.117 14.9623C97.582 14.9623 96.3701 13.7504 96.3701 12.0538C96.3701 10.438 97.582 9.1453 99.117 9.1453Z" fill="white"/>
<path d="M109.619 7.28711C106.791 7.28711 104.771 9.46847 104.771 12.0538C104.771 14.6391 106.71 16.9013 109.619 16.9013C112.285 16.9013 114.466 14.8815 114.466 12.0538C114.466 8.90293 111.962 7.28711 109.619 7.28711ZM109.7 9.1453C111.073 9.1453 112.447 10.2764 112.447 12.0538C112.447 13.8312 111.154 14.9623 109.7 14.9623C108.165 14.9623 106.953 13.7504 106.953 12.0538C106.953 10.438 108.084 9.1453 109.7 9.1453Z" fill="white"/>
<path d="M120.041 7.28711C117.455 7.28711 115.436 9.54926 115.436 12.1346C115.436 15.0431 117.779 16.9821 120.041 16.9821C121.414 16.9821 122.141 16.4165 122.707 15.7702V16.7397C122.707 18.4363 121.656 19.4058 120.202 19.4058C118.748 19.4058 118.021 18.2747 117.698 17.7092L115.84 18.5171C116.486 19.8905 117.859 21.3448 120.202 21.3448C122.788 21.3448 124.727 19.729 124.727 16.3357V7.69107H122.707V8.49898C121.98 7.69107 121.172 7.28711 120.041 7.28711ZM120.202 9.1453C121.495 9.1453 122.788 10.1956 122.788 12.0538C122.788 13.912 121.495 14.9623 120.202 14.9623C118.829 14.9623 117.536 13.8312 117.536 12.0538C117.536 10.2764 118.829 9.1453 120.202 9.1453Z" fill="white"/>
<path d="M133.616 7.28711C131.192 7.28711 129.092 9.2261 129.092 12.1346C129.092 15.2047 131.354 16.9821 133.858 16.9821C135.878 16.9821 137.171 15.851 137.898 14.8815L136.201 13.7504C135.797 14.3967 135.07 15.0431 133.858 15.0431C132.485 15.0431 131.839 14.3159 131.516 13.5888L137.979 10.9227L137.656 10.1148C137.009 8.57977 135.555 7.28711 133.616 7.28711ZM133.697 9.1453C134.586 9.1453 135.232 9.63006 135.474 10.1956L131.192 11.973C131.031 10.5995 132.323 9.1453 133.697 9.1453Z" fill="white"/>
<path d="M126.02 16.6587H128.12V2.43945H126.02V16.6587Z" fill="white"/>
<path d="M179.448 16.8821C178.34 16.8821 177.366 16.439 176.524 15.5529C175.726 14.6668 175.283 13.5592 175.283 12.2744C175.283 10.9895 175.682 9.88186 176.524 8.99575C177.366 8.10965 178.296 7.66659 179.448 7.66659C180.112 7.66659 180.688 7.79951 181.22 8.10965C181.752 8.37548 182.151 8.72993 182.416 9.17299H182.505L182.416 7.97674V3.98926H184.056V16.6606H182.461V15.4643H182.372C182.106 15.9074 181.707 16.2618 181.176 16.5277C180.688 16.7049 180.112 16.8821 179.448 16.8821ZM179.714 15.3757C180.467 15.3757 181.132 15.1099 181.663 14.5339C182.195 13.9579 182.461 13.2048 182.461 12.23C182.461 11.2553 182.195 10.5021 181.663 9.92615C181.132 9.35019 180.467 9.08437 179.714 9.08437C178.961 9.08437 178.296 9.35019 177.764 9.92615C177.233 10.5021 176.967 11.2553 176.967 12.1857C176.967 13.1162 177.233 13.8693 177.764 14.4453C178.296 15.0213 178.961 15.3757 179.714 15.3757Z" fill="white"/>
<path d="M146.883 16.5717H145.244V5.45108H141.699V3.90039H150.427V5.45108H146.883V16.5717Z" fill="white"/>
<path d="M152.421 16.5715H150.781V7.88768H152.332V9.30546H152.421C152.598 8.8181 152.908 8.46364 153.44 8.1535C153.971 7.84337 154.459 7.71045 154.946 7.71045C155.433 7.71045 155.832 7.79906 156.187 7.93198L155.566 9.43837C155.345 9.34976 155.079 9.30546 154.68 9.30546C154.104 9.30546 153.572 9.52697 153.129 10.0143C152.686 10.5017 152.465 11.0777 152.465 11.8309V16.5715H152.421Z" fill="white"/>
<path d="M160.573 16.8822C159.244 16.8822 158.181 16.4392 157.383 15.5531C156.541 14.667 156.143 13.5593 156.143 12.2302C156.143 10.9453 156.541 9.88202 157.339 8.95161C158.136 8.02119 159.155 7.57812 160.396 7.57812C161.681 7.57812 162.7 7.97687 163.497 8.81867C164.25 9.66047 164.649 10.7681 164.649 12.1859V12.496H157.782C157.826 13.3821 158.136 14.0467 158.668 14.5784C159.2 15.0657 159.82 15.3316 160.573 15.3316C161.725 15.3316 162.523 14.8442 162.966 13.8252L164.428 14.4455C164.162 15.11 163.674 15.686 163.01 16.129C162.301 16.6164 161.504 16.8822 160.573 16.8822ZM162.921 11.2112C162.877 10.7238 162.655 10.2364 162.257 9.79339C161.858 9.35034 161.193 9.12881 160.396 9.12881C159.776 9.12881 159.288 9.30603 158.845 9.70478C158.402 10.1035 158.092 10.5909 157.915 11.2112H162.921Z" fill="white"/>
<path d="M167.795 7.88827V9.08452H167.884C168.106 8.68577 168.504 8.33132 168.992 8.02118C169.479 7.71104 170.055 7.57812 170.631 7.57812C171.694 7.57812 172.536 7.88827 173.112 8.55285C173.688 9.21743 173.954 10.1035 173.954 11.2112V16.5278H172.315V11.477C172.315 9.882 171.606 9.08452 170.188 9.08452C169.523 9.08452 168.947 9.35034 168.549 9.88201C168.106 10.4137 167.928 11.034 167.928 11.7428V16.5278H166.289V7.84397H167.795V7.88827Z" fill="white"/>
<path d="M189.418 16.8819C188.444 16.8819 187.646 16.6604 187.026 16.173C186.406 15.6856 185.918 15.1097 185.652 14.4008L187.114 13.7805C187.557 14.8881 188.355 15.4198 189.463 15.4198C189.95 15.4198 190.393 15.2869 190.703 15.0654C191.013 14.8438 191.191 14.5337 191.191 14.1793C191.191 13.6033 190.792 13.2488 189.994 13.0273L188.222 12.5842C187.646 12.4513 187.159 12.1855 186.627 11.7868C186.095 11.388 185.874 10.8564 185.874 10.1918C185.874 9.43858 186.228 8.8183 186.893 8.33094C187.557 7.84359 188.399 7.62207 189.33 7.62207C190.083 7.62207 190.792 7.79927 191.368 8.15371C191.988 8.50816 192.387 8.99552 192.653 9.6601L191.235 10.2361C190.925 9.48288 190.26 9.08414 189.241 9.08414C188.754 9.08414 188.355 9.17276 188.001 9.39428C187.69 9.61581 187.513 9.88164 187.513 10.1918C187.513 10.6791 187.912 11.0336 188.665 11.2108L190.393 11.6095C191.191 11.7868 191.811 12.1412 192.21 12.5842C192.608 13.0273 192.785 13.559 192.785 14.1349C192.785 14.9324 192.475 15.5527 191.811 16.0844C191.235 16.616 190.393 16.8819 189.418 16.8819Z" fill="white"/>
<path d="M9.17095 0.45459C6.73445 0.465891 4.40189 1.37621 2.68331 2.98649C0.964726 4.59676 -3.01537e-05 6.77597 7.06859e-10 9.04759C7.06858e-10 9.51785 0.0458547 9.94537 0.0917094 10.4156C1.28393 7.50854 4.53962 5.41373 8.39142 5.41373C9.86312 5.39218 11.3173 5.71319 12.6224 6.3477C13.9275 6.98221 15.0423 7.91018 15.8657 9.04759H15.9116C16.7928 9.03401 17.6518 9.30599 18.3419 9.81711C18.3799 9.56223 18.3953 9.30484 18.3877 9.04759C18.3877 6.76858 17.4167 4.58292 15.6882 2.97142C13.9597 1.35992 11.6154 0.45459 9.17095 0.45459Z" fill="white"/>
<path d="M18.7007 10.4281C18.0109 9.91154 17.1523 9.63667 16.2714 9.65039H16.2256C13.5213 9.65039 10.6796 11.8539 9.85454 14.6191C9.64112 15.23 9.57973 15.879 9.67511 16.5158C9.77049 17.1527 10.0201 17.7603 10.4046 18.2916H9.53369C7.35716 18.2802 5.25445 17.5464 3.5948 16.219C1.93515 14.8916 0.824669 13.0554 0.45835 11.033C0.165658 11.8252 0.0108742 12.6569 0 13.4957C0.00700032 14.5229 0.247977 15.5367 0.706623 16.4684C1.16527 17.4002 1.83089 18.2282 2.65843 18.8965C3.71129 19.6486 4.88813 20.2325 6.1419 20.6247C7.23378 20.9751 8.38029 21.1504 9.53369 21.1432C11.0975 21.142 12.6428 20.8251 14.0659 20.214C15.489 19.6029 16.7567 18.7117 17.784 17.6003C18.499 16.8553 19.0867 16.0098 19.5257 15.0944C19.5716 14.9215 19.6632 14.7919 19.7091 14.6191C20.2133 12.8476 19.8007 11.3354 18.7007 10.4281Z" fill="white"/>
<path d="M58.4625 13.5342C56.8033 13.5342 56.041 12.6227 56.041 10.9365V0.45459H50.884V8.24764C50.2989 6.95918 49.363 5.86799 48.1868 5.10316C47.0107 4.33833 45.6436 3.93188 44.2472 3.93188C42.8509 3.93188 41.4838 4.33833 40.3077 5.10316C39.1315 5.86799 38.1955 6.95918 37.6105 8.24764V4.10046H32.5432V11.3922C32.5432 12.7138 31.8257 13.6253 30.7046 13.6253C29.5835 13.6253 28.866 12.7138 28.866 11.3922V4.10046H23.7539V11.4834C23.7539 15.9951 26.4893 18.8207 30.7046 18.8207C34.1127 18.8207 36.5342 16.9066 37.2966 13.8076C37.7917 15.2662 38.7189 16.5333 39.9508 17.435C41.1828 18.3367 42.6592 18.8289 44.1774 18.8438C45.6955 18.8588 47.181 18.3959 48.43 17.5187C49.679 16.6415 50.6302 15.3929 51.1531 13.9443C51.9154 17.2712 54.3818 18.7295 57.7002 18.7295H59.0007V13.5342H58.4625ZM44.2472 13.6253C43.8127 13.6253 43.3878 13.4943 43.0265 13.249C42.6651 13.0036 42.3835 12.6548 42.2172 12.2468C42.0509 11.8387 42.0074 11.3897 42.0921 10.9566C42.1769 10.5234 42.3862 10.1255 42.6935 9.81317C43.0008 9.50087 43.3923 9.28818 43.8186 9.20202C44.2448 9.11585 44.6866 9.16008 45.0881 9.3291C45.4896 9.49811 45.8328 9.78433 46.0742 10.1516C46.3157 10.5188 46.4446 10.9505 46.4446 11.3922C46.4446 11.9845 46.2131 12.5525 45.801 12.9712C45.3889 13.39 44.83 13.6253 44.2472 13.6253Z" fill="white"/>
</svg>
